<svg xmlns="http://www.w3.org/2000/svg" viewBox="0 0 640 400" role="img" aria-label="Neurodevelopment and cooking fuel exposure visual">
  <defs>
    <linearGradient id="bg" x1="0" y1="0" x2="1" y2="1"><stop offset="0" stop-color="#fffaf2"/><stop offset="1" stop-color="#edf7ff"/></linearGradient>
    <linearGradient id="brain" x1="0" y1="0" x2="1" y2="1"><stop offset="0" stop-color="#8b5cf6"/><stop offset="1" stop-color="#06b6d4"/></linearGradient>
    <filter id="shadow" x="-20%" y="-20%" width="140%" height="140%"><feDropShadow dx="0" dy="10" stdDeviation="12" flood-color="#392a5a" flood-opacity=".18"/></filter>
  </defs>
  <rect width="640" height="400" rx="28" fill="url(#bg)"/>
  <circle cx="520" cy="90" r="96" fill="#fb923c" opacity=".12"/>
  <circle cx="122" cy="320" r="86" fill="#06b6d4" opacity=".12"/>
  <g filter="url(#shadow)">
    <rect x="55" y="209" width="168" height="95" rx="16" fill="#fff"/>
    <path d="M84 244h94M84 271h66" stroke="#c9d7e6" stroke-width="12" stroke-linecap="round"/>
    <circle cx="190" cy="250" r="19" fill="#fb923c"/>
    <path d="M190 250c-18-38 4-70 41-88" fill="none" stroke="#8b5cf6" stroke-width="8" stroke-linecap="round" opacity=".55"/>
  </g>
  <g transform="translate(268 72)" filter="url(#shadow)">
    <path d="M96 37c41-25 99 6 101 61 38 10 54 65 20 96 8 39-34 68-69 50-28 31-83 23-96-19-41 4-72-35-55-73-23-35-4-81 38-88 9-18 28-24 61-27z" fill="url(#brain)"/>
    <path d="M68 84c28 5 41 22 44 48M117 67c-16 34-12 62 12 86M162 96c-33 8-54 28-61 61M70 179c45-10 77 0 103 28" fill="none" stroke="#fff" stroke-width="7" stroke-linecap="round" opacity=".62"/>
    <g fill="#fff"><circle cx="71" cy="84" r="6"/><circle cx="112" cy="132" r="6"/><circle cx="129" cy="153" r="6"/><circle cx="101" cy="157" r="6"/><circle cx="173" cy="207" r="6"/></g>
  </g>
  <g filter="url(#shadow)">
    <rect x="456" y="220" width="126" height="82" rx="18" fill="#fff"/>
    <path d="M482 282c18-26 34-45 50-49 18-5 28 15 32 40" fill="none" stroke="#06b6d4" stroke-width="8" stroke-linecap="round"/>
    <path d="M482 252c18 6 32 9 45 8 13 0 25-5 37-16" fill="none" stroke="#fb923c" stroke-width="6" stroke-linecap="round"/>
  </g>
  <path d="M210 251c57-51 99-71 150-69M420 186c30 20 57 43 85 69" fill="none" stroke="#a8b6c8" stroke-width="3" stroke-dasharray="8 12" opacity=".75"/>
</svg>
