<svg xmlns="http://www.w3.org/2000/svg" viewBox="0 0 640 400" role="img" aria-label="PM2.5 sensor calibration and Nepal map visual">
  <defs>
    <linearGradient id="bg" x1="0" y1="0" x2="1" y2="1"><stop offset="0" stop-color="#f5f7ff"/><stop offset="1" stop-color="#eefdf7"/></linearGradient>
    <linearGradient id="heat" x1="0" y1="1" x2="1" y2="0"><stop offset="0" stop-color="#22c55e"/><stop offset=".5" stop-color="#f59e0b"/><stop offset="1" stop-color="#ef4444"/></linearGradient>
    <filter id="shadow" x="-20%" y="-20%" width="140%" height="140%"><feDropShadow dx="0" dy="10" stdDeviation="12" flood-color="#0f172a" flood-opacity=".16"/></filter>
  </defs>
  <rect width="640" height="400" rx="28" fill="url(#bg)"/>
  <circle cx="116" cy="86" r="70" fill="#22c55e" opacity=".09"/>
  <circle cx="536" cy="292" r="92" fill="#ef4444" opacity=".08"/>
  <g filter="url(#shadow)">
    <rect x="62" y="82" width="248" height="220" rx="24" fill="#fff"/>
    <path d="M92 207c37-62 77-92 120-91 36 2 58 28 70 67-26-2-47 5-64 23-25 28-57 30-126 1z" fill="url(#heat)" opacity=".82"/>
    <g fill="#fff" stroke="#0f766e" stroke-width="4">
      <circle cx="128" cy="202" r="9"/><circle cx="178" cy="162" r="9"/><circle cx="228" cy="177" r="9"/><circle cx="250" cy="213" r="9"/>
    </g>
    <path d="M100 255h172" stroke="#cbd5e1" stroke-width="8" stroke-linecap="round"/>
    <path d="M100 255c54-39 108-42 172-78" stroke="#0ea5e9" stroke-width="6" stroke-linecap="round" fill="none"/>
  </g>
  <g transform="translate(382 78)" filter="url(#shadow)">
    <rect x="0" y="0" width="166" height="226" rx="24" fill="#fff"/>
    <rect x="58" y="58" width="50" height="102" rx="14" fill="#0ea5e9" opacity=".9"/>
    <circle cx="83" cy="88" r="14" fill="#fff" opacity=".9"/>
    <path d="M83 160v32M55 192h56" stroke="#334155" stroke-width="8" stroke-linecap="round"/>
    <path d="M32 70c-22 30-22 71 0 101M134 70c22 30 22 71 0 101M48 88c-12 20-12 45 0 65M118 88c12 20 12 45 0 65" fill="none" stroke="#22c55e" stroke-width="6" stroke-linecap="round" opacity=".75"/>
  </g>
  <path d="M310 198c34-18 57-17 77-6" fill="none" stroke="#b6c1cf" stroke-width="4" stroke-dasharray="8 12"/>
</svg>
